<svg id="Partly_cloudy" xmlns="http://www.w3.org/2000/svg" xmlns:xlink="http://www.w3.org/1999/xlink" width="30" height="23.984" viewBox="0 0 30 23.984">
  <defs>
    <style>
      .cls-1 {
        fill: #23bdfc;
      }

      .cls-2 {
        clip-path: url(#clip-path);
      }
    </style>
    <clipPath id="clip-path">
      <rect id="Rectangle_11" data-name="Rectangle 11" class="cls-1" width="30" height="23.984"/>
    </clipPath>
  </defs>
  <g id="Group_17" data-name="Group 17" class="cls-2">
    <path id="Path_15" data-name="Path 15" class="cls-1" d="M111.378,57a.453.453,0,1,0,.681-.6l-3.37-3.852a.453.453,0,1,0-.683.6Z" transform="translate(-100.383 -48.749)"/>
    <path id="Path_16" data-name="Path 16" class="cls-1" d="M234.407,6.026a.452.452,0,0,0,.45-.455L234.82.451a.453.453,0,1,0-.905.006l.036,5.118a.453.453,0,0,0,.456.451" transform="translate(-217.631 0)"/>
    <path id="Path_17" data-name="Path 17" class="cls-1" d="M338.936,247.324l-4.53-2.382a.453.453,0,1,0-.422.8l4.529,2.383a.453.453,0,0,0,.423-.8" transform="translate(-310.507 -227.841)"/>
    <path id="Path_18" data-name="Path 18" class="cls-1" d="M350.36,156.3l-5.084.594a.453.453,0,1,0,.1.9l5.084-.593a.453.453,0,1,0-.1-.9" transform="translate(-320.867 -145.414)"/>
    <path id="Path_19" data-name="Path 19" class="cls-1" d="M305.405,48.049l3.151-4.034a.453.453,0,1,0-.713-.558l-3.152,4.036a.452.452,0,1,0,.714.556" transform="translate(-283.39 -40.269)"/>
    <path id="Path_20" data-name="Path 20" class="cls-1" d="M23.03,105.81a6.418,6.418,0,0,0-12.551-1.892c.042,0,.082-.009.124-.012l.215-.005.034,0-.106,0c-.042,0-.083.008-.124.012a4.2,4.2,0,0,0-1.9.625l-4.816-.394a.454.454,0,0,0-.075.906l3.934.32a3.942,3.942,0,0,0-.9,1.935,3.339,3.339,0,0,0-1.055-.171,3.5,3.5,0,0,0-3.492,3.492c0,.025,0,.05,0,.076A2.735,2.735,0,0,0,0,113.526,3.015,3.015,0,0,0,3.131,116.4l.165,0c1.056-.054,5.439,0,5.441,0v-.075l.023,0,0,.071v-.071c.608.081,1.977.084,5.072.09,0,0,2.361.04,4.074.04.646,0,1.2-.006,1.508-.021a2.973,2.973,0,0,0,2.058-1.01,3.3,3.3,0,0,0,.869-2.358,2.884,2.884,0,0,0-1.468-2.347c-.03-.017-.061-.031-.091-.048a6.4,6.4,0,0,0,2.243-4.864m-1.613,7.3a2.406,2.406,0,0,1-.629,1.689,2.057,2.057,0,0,1-1.416.7c-1.111.056-5.517-.021-5.528-.02-1.956,0-4.923-.011-5.08-.017l-.011.206,0-.207s-2.034-.026-3.674-.026c-.785,0-1.48.006-1.826.024l-.118,0a2.089,2.089,0,0,1-2.2-1.945c0-1.285.673-1.687,2-2.015l.336-.135.022-.339-.014-.176a1.833,1.833,0,0,1-.022-.229,2.565,2.565,0,0,1,2.562-2.562,2.527,2.527,0,0,1,1.244.337l.705.4-.014-.809a3.053,3.053,0,0,1,1.289-2.534.445.445,0,0,0,.324-.216,3.264,3.264,0,0,1,1.048-.364,3.378,3.378,0,0,1,.381-.043l.168,0a3.331,3.331,0,0,1,.393.026,3.13,3.13,0,0,1,2.8,2.915c0,.056,0,.112-.01.272l-.041,1.2.838-.854a2.56,2.56,0,0,1,4.388,1.794,2.625,2.625,0,0,1-.05.5.106.106,0,0,0,0,.012l-.093.466.468.082a2.4,2.4,0,0,1,.359.092,2.014,2.014,0,0,1,1.409,1.781m-1.179-3.2a3.486,3.486,0,0,0-5.227-2.758,4.072,4.072,0,0,0-3.413-3.208c-.045-.007-.093-.005-.138-.011a5.483,5.483,0,1,1,8.779,5.977" transform="translate(0 -92.473)"/>
  </g>
</svg>
