<svg id="rainy" xmlns="http://www.w3.org/2000/svg" xmlns:xlink="http://www.w3.org/1999/xlink" width="30" height="23.675" viewBox="0 0 30 23.675">
  <defs>
    <style>
      .cls-1 {
        fill: #23bdfc;
      }

      .cls-2 {
        clip-path: url(#clip-path);
      }
    </style>
    <clipPath id="clip-path">
      <rect id="Rectangle_12" data-name="Rectangle 12" class="cls-1" width="30" height="23.675"/>
    </clipPath>
  </defs>
  <g id="Group_19" data-name="Group 19" class="cls-2">
    <path id="Path_21" data-name="Path 21" class="cls-1" d="M27.153,8.8c.011-.137.018-.272.018-.407a4.632,4.632,0,0,0-4.627-4.626,4.57,4.57,0,0,0-2.432.693,5.514,5.514,0,0,0-10.854.176,4.449,4.449,0,0,0-1.5-.261A4.631,4.631,0,0,0,3.137,9c0,.055,0,.109.006.168C1.851,9.518,0,10.266,0,12.907a3.888,3.888,0,0,0,3.857,3.754l.681-1.05c-.081,0-.173,0-.236.007l-.165,0a2.907,2.907,0,0,1-3.059-2.716c0-1.784.971-2.363,2.771-2.809l.4-.154.012-.408-.02-.219A2.38,2.38,0,0,1,4.213,9,3.554,3.554,0,0,1,7.763,5.45a3.5,3.5,0,0,1,1.724.467l.817.458-.016-.937A4.328,4.328,0,0,1,14.48,1.084l.233-.007a4.335,4.335,0,0,1,4.393,4.059,3.415,3.415,0,0,1-.011.371l-.048,1.384.972-.987a3.518,3.518,0,0,1,2.527-1.063A3.544,3.544,0,0,1,26.023,9.1l-.109.541.542.095a2.864,2.864,0,0,1,2.463,2.611,3.324,3.324,0,0,1-2.189,3.2l.358,1a4.352,4.352,0,0,0,2.906-4.259,3.889,3.889,0,0,0-2.841-3.5" transform="translate(0 0)"/>
    <path id="Path_22" data-name="Path 22" class="cls-1" d="M76.517,189.338h0c-1.787-2.392-1.668-6.513-1.752-5.193a9.989,9.989,0,0,1-1.582,5.193,1.506,1.506,0,0,0-.177.706,1.855,1.855,0,0,0,3.687,0,1.5,1.5,0,0,0-.178-.706" transform="translate(-66.894 -168.49)"/>
    <path id="Path_23" data-name="Path 23" class="cls-1" d="M149.1,158.138h0c-1.56-2.09-1.457-5.687-1.531-4.536a8.74,8.74,0,0,1-1.379,4.536,1.314,1.314,0,0,0-.157.615,1.62,1.62,0,0,0,3.221,0,1.328,1.328,0,0,0-.156-.615" transform="translate(-133.809 -140.535)"/>
    <path id="Path_24" data-name="Path 24" class="cls-1" d="M204.41,212.574h0c-1.427-1.912-1.33-5.205-1.4-4.15a7.974,7.974,0,0,1-1.262,4.15,1.206,1.206,0,0,0-.141.564,1.483,1.483,0,0,0,2.947,0,1.207,1.207,0,0,0-.143-.564" transform="translate(-184.721 -190.783)"/>
    <path id="Path_25" data-name="Path 25" class="cls-1" d="M236.927,163.194h0c-.9-1.2-.837-3.275-.88-2.612a5.042,5.042,0,0,1-.795,2.612.733.733,0,0,0-.091.354.934.934,0,0,0,1.856,0,.739.739,0,0,0-.09-.354" transform="translate(-215.467 -147.016)"/>
  </g>
</svg>
