<svg id="wind" xmlns="http://www.w3.org/2000/svg" xmlns:xlink="http://www.w3.org/1999/xlink" width="56.688" height="23.5" viewBox="0 0 56.688 23.5">
  <defs>
    <style>
      .cls-1 {
        fill: #23bdfc;
      }

      .cls-2 {
        clip-path: url(#clip-path);
      }
    </style>
    <clipPath id="clip-path">
      <rect id="Rectangle_10" data-name="Rectangle 10" class="cls-1" width="56.688" height="23.5"/>
    </clipPath>
  </defs>
  <g id="Group_9" data-name="Group 9" class="cls-2">
    <path id="Path_13" data-name="Path 13" class="cls-1" d="M55.26,44.269a3.842,3.842,0,0,0-4.089-.854,3.3,3.3,0,0,0-2.21,3.143,2.664,2.664,0,0,0,1.531,2.489,1.653,1.653,0,0,0,1.834-.541l-1.269-1.032a1.181,1.181,0,0,1-.425-.943,1.614,1.614,0,0,1,1.186-1.575,2.185,2.185,0,0,1,2.3.528,3.359,3.359,0,0,1,.632,3.664c-.735,2.089-2.408,1.773-6.668.425-4.47-1.42-10.595-3.362-15.718,1.54-1.5,1.434-4.793,2.089-8.836,1.728-3.376-.3-6.9-.909-9.784-3.373a16.593,16.593,0,0,0-8.316-3.945,12.4,12.4,0,0,1,7.411,1.261c4.063,2.059,8.954,4,12.994,4a7.411,7.411,0,0,0,5.749-2.21c3.165-3.486,6.956-3.1,10.288-2.763,2.974.311,6.047.617,7.1-2.73A4.338,4.338,0,0,0,47.872,38.4a4.92,4.92,0,0,0-4.98-.943,2.457,2.457,0,0,0-.171,4.755,2.06,2.06,0,0,0,2.312-.575l-1.266-1.094c-.058.062-.171.2-.48.089a.981.981,0,0,1-.651-.776c-.011-.429.629-.741.9-.856a3.228,3.228,0,0,1,3.2.637,2.621,2.621,0,0,1,.626,2.945c-.612,1.965-2.17,1.893-5.331,1.57-3.364-.341-7.966-.82-11.7,3.3-3.43,3.779-11.96.271-16.743-2.16a14.079,14.079,0,0,0-5.426-1.52,11.124,11.124,0,0,1,5.374,1.149,17.552,17.552,0,0,0,8.548,2.022A11,11,0,0,0,28.7,44.473a4.108,4.108,0,0,0,.736-5.147,3.577,3.577,0,0,0-4.581-1.518,2.379,2.379,0,0,0-1.513,2.957A2.545,2.545,0,0,0,26.6,42.4l-.3-1.326c-.995.215-1.508-.215-1.65-.7a1.032,1.032,0,0,1,.681-1.288,2.2,2.2,0,0,1,2.918.928,2.751,2.751,0,0,1-.424,3.419c-1.564,1.311-6.034,3.98-13.679.259C6.48,39.971.062,45.4,0,45.461l.088.1L0,45.614l.8,1.28v.172a15.868,15.868,0,0,1,11.857,3.679c3.291,2.718,7.077,3.441,10.726,3.762.775.069,1.527.1,2.25.1,3.525,0,6.335-.8,7.889-2.286,4.413-4.214,9.538-2.582,14.055-1.15,3.648,1.15,7.416,2.355,8.754-1.464a4.977,4.977,0,0,0-1.068-5.436" transform="translate(0 -31.105)"/>
    <path id="Path_14" data-name="Path 14" class="cls-1" d="M75.111,8.2c.041-.039.084-.089.127-.138a4.711,4.711,0,0,1-2.95-1.447A8.467,8.467,0,0,1,70.249,3.6,12.543,12.543,0,0,0,72.7,6.425a9.013,9.013,0,0,0,2.849,1.254c.875-1.274,1.188-3.326-.785-4.38-.9-.454-1.848.358-2.976-.17A2.88,2.88,0,0,1,69.931.083L69.849,0c-.425,1.439-1.076,5.024-.381,6.592,1.2,2.827,4.125,3.076,5.644,1.612" transform="translate(-57.925 -0.001)"/>
  </g>
</svg>
