<svg id="windy" xmlns="http://www.w3.org/2000/svg" xmlns:xlink="http://www.w3.org/1999/xlink" width="30" height="19.894" viewBox="0 0 30 19.894">
  <defs>
    <style>
      .cls-1 {
        fill: #23bdfc;
      }

      .cls-2 {
        clip-path: url(#clip-path);
      }
    </style>
    <clipPath id="clip-path">
      <rect id="Rectangle_13" data-name="Rectangle 13" class="cls-1" width="30" height="19.894"/>
    </clipPath>
  </defs>
  <g id="Group_21" data-name="Group 21" class="cls-2">
    <path id="Path_26" data-name="Path 26" class="cls-1" d="M29.995,12.295a3.89,3.89,0,0,0-2.842-3.5c.013-.136.019-.272.019-.407a4.632,4.632,0,0,0-4.626-4.626,4.572,4.572,0,0,0-2.432.693,5.513,5.513,0,0,0-10.853.176,4.454,4.454,0,0,0-1.5-.261A4.633,4.633,0,0,0,3.135,9c0,.055,0,.109.009.168C1.851,9.52,0,10.267,0,12.909a3.872,3.872,0,0,0,3.7,3.74v.014l.055-.009c.033,0,.065.008.1.009l.015-.022a6.917,6.917,0,0,1,4.915,1.6,7.946,7.946,0,0,0,4.6,1.612c.333.03.654.044.966.044a4.955,4.955,0,0,0,3.379-.979c1.892-1.808,4.088-1.109,6.025-.5,1.565.5,3.179,1.01,3.753-.628a2.4,2.4,0,0,0,.071-1.449,4.358,4.358,0,0,0,2.418-4.049m-2.987,3.139A1.643,1.643,0,0,0,25.3,15.1a1.415,1.415,0,0,0-.948,1.348,1.146,1.146,0,0,0,.657,1.068.709.709,0,0,0,.786-.233l-.544-.443a.5.5,0,0,1-.181-.4.69.69,0,0,1,.508-.676.937.937,0,0,1,.984.227,1.437,1.437,0,0,1,.271,1.57c-.314.9-1.034.76-2.857.181-1.916-.609-4.541-1.441-6.74.661-.641.614-2.055.894-3.786.74a7.1,7.1,0,0,1-4.194-1.444,6.936,6.936,0,0,0-4.219-1.759,5.333,5.333,0,0,1,3.715.439,13.6,13.6,0,0,0,5.566,1.713,3.17,3.17,0,0,0,2.464-.947c1.36-1.495,2.983-1.329,4.412-1.183,1.274.132,2.592.265,3.044-1.172a1.861,1.861,0,0,0-.471-2.007,2.11,2.11,0,0,0-2.135-.4,1.053,1.053,0,0,0-.07,2.038.88.88,0,0,0,.989-.246L22,13.7c-.024.026-.073.085-.206.039a.421.421,0,0,1-.277-.332c-.006-.184.268-.318.386-.367a1.386,1.386,0,0,1,1.374.273,1.126,1.126,0,0,1,.268,1.262c-.262.842-.931.812-2.287.673-1.44-.146-3.413-.349-5.013,1.414-1.469,1.62-5.126.117-7.176-.925a6.136,6.136,0,0,0-5.282-.14,3.261,3.261,0,0,1-1.46-.506,6.28,6.28,0,0,1,6.383-.3,9.228,9.228,0,0,0,4.437,1.279,5.8,5.8,0,0,0,3.533-1.129,2.155,2.155,0,0,0,.513-2.684,1.877,1.877,0,0,0-2.364-.916,1.257,1.257,0,0,0-.873,1.517,1.344,1.344,0,0,0,1.671.94l-.124-.706c-.527.089-.786-.149-.849-.4a.546.546,0,0,1,.392-.662,1.164,1.164,0,0,1,1.51.563,1.447,1.447,0,0,1-.31,1.782c-.857.652-3.272,1.939-7.19-.208a7.068,7.068,0,0,0-7.293.443,2.517,2.517,0,0,1-.687-1.693c0-1.784.973-2.363,2.77-2.809l.4-.154.012-.409-.018-.219A2.276,2.276,0,0,1,4.213,9a3.554,3.554,0,0,1,3.55-3.549,3.476,3.476,0,0,1,1.721.467l.819.458-.016-.937A4.327,4.327,0,0,1,14.48,1.085l.232-.007a4.334,4.334,0,0,1,4.393,4.059c.005.082,0,.162-.01.371l-.05,1.384.97-.987A3.546,3.546,0,0,1,26.024,9.1l-.109.541.544.095a2.864,2.864,0,0,1,2.462,2.611,3.345,3.345,0,0,1-1.912,3.086" transform="translate(0 -0.001)"/>
  </g>
</svg>
